HIERARCHY
ROOT Hips
{
    OFFSET 0.000000 0.000000 0.000000
    CHANNELS 6 Xposition Yposition Zposition Zrotation Xrotation Yrotation
    JOINT Spine
    {
        OFFSET -0.000000 7.236184 0.000000
        CHANNELS 3 Zrotation Xrotation Yrotation
        JOINT Spine1
        {
            OFFSET -0.000000 20.420147 0.000000
            CHANNELS 3 Zrotation Xrotation Yrotation
            JOINT Neck
            {
                OFFSET -0.000000 20.336288 1.848754
                CHANNELS 3 Zrotation Xrotation Yrotation
                JOINT Head
                {
                    OFFSET -0.000000 12.354461 -1.764923
                    CHANNELS 3 Zrotation Xrotation Yrotation
                    End Site
                    {
                        OFFSET -0.000000 22.061537 0.000000
                    }
                }
            }
            JOINT LeftShoulder
            {
                OFFSET 3.573296 18.396038 -0.314103
                CHANNELS 3 Zrotation Xrotation Yrotation
                JOINT LeftArm
                {
                    OFFSET 10.880760 0.000000 0.000000
                    CHANNELS 3 Zrotation Xrotation Yrotation
                    JOINT LeftForeArm
                    {
                        OFFSET 27.185530 0.000000 0.000000
                        CHANNELS 3 Zrotation Xrotation Yrotation
                        JOINT LeftHand
                        {
                            OFFSET 27.825975 0.000000 0.000000
                            CHANNELS 3 Zrotation Xrotation Yrotation
                            End Site
                            {
                                OFFSET 13.236923 0.000000 0.000000
                            }
                        }
                    }
                }
            }
            JOINT RightShoulder
            {
                OFFSET -3.474926 18.396038 -0.314103
                CHANNELS 3 Zrotation Xrotation Yrotation
                JOINT RightArm
                {
                    OFFSET -10.880760 0.000000 0.000000
                    CHANNELS 3 Zrotation Xrotation Yrotation
                    JOINT RightForeArm
                    {
                        OFFSET -27.185530 0.000000 0.000000
                        CHANNELS 3 Zrotation Xrotation Yrotation
                        JOINT RightHand
                        {
                            OFFSET -27.825975 0.000000 0.000000
                            CHANNELS 3 Zrotation Xrotation Yrotation
                            End Site
                            {
                                OFFSET -13.236923 0.000000 0.000000
                            }
                        }
                    }
                }
            }
        }
    }
    JOINT LeftUpLeg
    {
        OFFSET 8.824615 0.000000 0.000000
        CHANNELS 3 Zrotation Xrotation Yrotation
        JOINT LeftLeg
        {
            OFFSET -0.000000 -35.111282 0.000000
            CHANNELS 3 Zrotation Xrotation Yrotation
            JOINT LeftFoot
            {
                OFFSET -0.000000 -42.324711 0.000000
                CHANNELS 3 Zrotation Xrotation Yrotation
                JOINT LeftToeBase
                {
                    OFFSET -0.000000 -5.735999 13.236923
                    CHANNELS 3 Zrotation Xrotation Yrotation
                    End Site
                    {
                        OFFSET -0.000000 0.000000 3.529846
                    }
                }
            }
        }
    }
    JOINT RightUpLeg
    {
        OFFSET -8.824615 0.000000 0.000000
        CHANNELS 3 Zrotation Xrotation Yrotation
        JOINT RightLeg
        {
            OFFSET -0.000000 -35.111282 0.000000
            CHANNELS 3 Zrotation Xrotation Yrotation
            JOINT RightFoot
            {
                OFFSET -0.000000 -42.324711 0.000000
                CHANNELS 3 Zrotation Xrotation Yrotation
                JOINT RightToeBase
                {
                    OFFSET -0.000000 -5.735999 13.236923
                    CHANNELS 3 Zrotation Xrotation Yrotation
                    End Site
                    {
                        OFFSET -0.000000 0.000000 3.529846
                    }
                }
            }
        }
    }
}
MOTION
Frames:    14
Frame Time:    0.008333
-11.149296    85.555855    102.021172    1.252506    -6.858986    -168.845444    -1.759264    -7.637298    1.814006    1.929477    0.321955    1.926008    2.158117    9.529454    -3.884406    6.974288    -2.069258    -3.059518    18.608913    -4.283695    -3.596294    -10.914470    -5.518502    -2.429406    19.731569    -3.410161    -9.317937    11.368229    -2.333680    -5.482702    -15.224533    -2.225220    -7.790987    5.067385    -16.423729    7.430284    -37.356270    -8.227766    43.293926    -15.538032    6.455224    5.429598    1.302462    -12.595353    -8.545770    1.000105    17.410780    4.112864    -7.203960    -8.923829    -14.458276    0.364958    -1.952682    -0.405994    -11.500425    -3.965808    -9.866727    2.721012    12.274461    -2.874205    9.015056    0.846114    -12.099642    -1.034202    -5.955952    1.128251    
-11.009995    85.483490    101.970818    1.082905    -6.742613    -169.767838    -2.055317    -7.623622    1.526101    1.989114    0.253050    1.658676    2.409113    9.947877    -3.270910    6.698447    -1.964833    -2.477218    18.906633    -4.800793    -3.943810    -10.366794    -6.832724    -3.110330    20.980234    -5.141387    -10.307117    11.000301    -3.730659    -5.174187    -14.678572    -1.945187    -7.793914    5.664977    -16.616507    6.986136    -36.399570    -8.045455    43.634502    -15.130525    6.412503    5.050234    1.390989    -12.446465    -8.369365    0.862607    17.667030    4.798388    -7.295416    -9.069569    -14.445448    0.360444    -2.025659    -0.401028    -11.516375    -4.114220    -9.401744    2.678994    12.418787    -2.657739    8.917175    0.544472    -11.896486    -1.088777    -5.890639    1.187670    
-10.862144    85.411362    101.921249    0.925981    -6.620404    -170.679169    -2.340630    -7.603251    1.246225    2.031997    0.180992    1.398630    2.645035    10.320682    -2.680590    6.460816    -1.821024    -1.913112    19.145523    -5.272619    -4.315840    -9.921660    -8.213984    -3.872900    22.245630    -7.172973    -11.480854    10.783223    -5.364652    -4.718290    -14.098624    -1.671672    -7.781830    6.290448    -16.939150    6.515010    -35.442017    -7.855100    44.005741    -15.022367    6.350111    4.816476    1.500190    -12.285531    -8.179180    0.717980    17.901173    5.472867    -7.393650    -9.198591    -14.440953    0.355150    -2.103520    -0.395195    -11.513256    -4.254862    -8.989882    2.628302    12.552907    -2.436509    8.827342    0.258342    -11.670707    -1.153741    -5.826884    1.258412    
-10.704120    85.340828    101.872124    0.781541    -6.494688    -171.587845    -2.616106    -7.576491    0.968411    2.056501    0.103188    1.139868    2.871460    10.644972    -2.103785    6.255111    -1.634679    -1.358977    19.327160    -5.696221    -4.719128    -9.576463    -9.652172    -4.719657    23.516134    -9.545788    -12.861567    10.690999    -7.264189    -4.081608    -13.482265    -1.395777    -7.766599    6.941700    -17.372816    6.015035    -34.466881    -7.648355    44.412830    -15.227906    6.270852    4.734013    1.630345    -12.109726    -7.970621    0.569578    18.108112    6.139959    -7.500991    -9.308377    -14.445755    0.349041    -2.186490    -0.388457    -11.491521    -4.391503    -8.632609    2.568800    12.676800    -2.205725    8.746756    -0.008209    -11.417730    -1.229746    -5.765650    1.341184    
-10.538706    85.275513    101.824440    0.653067    -6.371897    -172.476868    -2.875231    -7.545267    0.694081    2.059729    0.019841    0.883438    3.091433    10.908028    -1.546410    6.076760    -1.405991    -0.822577    19.447556    -6.058458    -5.148045    -9.337569    -11.096840    -5.630193    24.745258    -12.215794    -14.431255    10.707085    -9.389285    -3.256212    -12.843405    -1.116328    -7.760509    7.602837    -17.880089    5.501638    -33.492458    -7.428529    44.845291    -15.739617    6.174427    4.804899    1.777831    -11.922157    -7.746694    0.424299    18.277800    6.787176    -7.617736    -9.392826    -14.461600    0.342157    -2.272456    -0.380857    -11.452759    -4.524849    -8.340122    2.502748    12.787378    -1.966986    8.678491    -0.243911    -11.140623    -1.314578    -5.710024    1.433581    
-10.363710    85.216789    101.777458    0.539170    -6.254335    -173.358627    -3.120966    -7.511941    0.415287    2.040689    -0.069808    0.621552    3.316402    11.108979    -0.995333    5.912687    -1.129067    -0.293406    19.507854    -6.360963    -5.608508    -9.199043    -12.541521    -6.612093    25.923084    -15.191444    -16.214798    10.818013    -11.742144    -2.225262    -12.175294    -0.821949    -7.774524    8.282366    -18.427727    4.977417    -32.513748    -7.199024    45.298389    -16.536285    6.052340    5.019914    1.942885    -11.721266    -7.504669    0.284014    18.408720    7.424236    -7.746872    -9.449639    -14.489931    0.334698    -2.362485    -0.372617    -11.397704    -4.660049    -8.107674    2.430777    12.885681    -1.716077    8.622392    -0.446770    -10.834640    -1.407481    -5.660800    1.534777    
-10.181716    85.167862    101.731682    0.442370    -6.147233    -174.219971    -3.349123    -7.480032    0.131817    1.999634    -0.162659    0.353673    3.551897    11.238955    -0.453301    5.754393    -0.802877    0.223493    19.505587    -6.600529    -6.094065    -9.159880    -13.936646    -7.644377    27.011108    -18.373890    -18.187300    11.021050    -14.239146    -1.015156    -11.489245    -0.510355    -7.819492    8.974051    -18.962635    4.463212    -31.561237    -6.975256    45.752342    -17.565536    5.896677    5.357980    2.121933    -11.511357    -7.249440    0.154301    18.496433    8.043318    -7.888228    -9.474187    -14.531640    0.326940    -2.455981    -0.364044    -11.327559    -4.797886    -7.935062    2.356121    12.969691    -1.456849    8.579914    -0.609376    -10.504584    -1.504483    -5.620185    1.640448    
-9.992411    85.130463    101.686874    0.361983    -6.054145    -175.064407    -3.561366    -7.453431    -0.161428    1.937540    -0.256583    0.074749    3.807111    11.295850    0.087124    5.591214    -0.422734    0.733037    19.440983    -6.780738    -6.603730    -9.215125    -15.262714    -8.724893    27.994848    -21.688931    -20.351065    11.321412    -16.815226    0.345225    -10.783220    -0.173541    -7.904133    9.686724    -19.437490    3.973335    -30.653566    -6.773279    46.191208    -18.774063    5.696466    5.793317    2.313621    -11.295230    -6.982801    0.036540    18.541937    8.648510    -8.042600    -9.464185    -14.586149    0.319039    -2.554361    -0.355313    -11.243424    -4.943124    -7.815532    2.280432    13.041172    -1.187866    8.551426    -0.730854    -10.151138    -1.602590    -5.589080    1.747336    
-9.796343    85.106110    101.642845    0.299196    -5.977117    -175.890076    -3.756373    -7.434665    -0.467979    1.855529    -0.348310    -0.218238    4.088357    11.277412    0.629199    5.416139    0.014577    1.238020    19.315702    -6.906998    -7.133202    -9.360102    -16.495205    -9.843148    28.857986    -25.029455    -22.696049    11.729040    -19.377951    1.805933    -10.058709    0.191160    -8.032522    10.425631    -19.801010    3.524009    -29.816418    -6.612062    46.596428    -20.098888    5.442852    6.295324    2.517667    -11.075795    -6.706777    -0.067594    18.547405    9.237255    -8.209375    -9.418068    -14.650872    0.311124    -2.658076    -0.346566    -11.144427    -5.097174    -7.737075    2.206279    13.100698    -0.912314    8.538307    -0.811329    -9.779513    -1.698323    -5.567241    1.851651    
-9.593087    85.095520    101.599693    0.252888    -5.919300    -176.700211    -3.935868    -7.427316    -0.792912    1.754451    -0.435641    -0.530629    4.402015    11.184716    1.180759    5.222889    0.511584    1.743629    19.131500    -6.985046    -7.680140    -9.591393    -17.626465    -10.996528    29.593142    -28.310143    -25.226870    12.242091    -21.851620    3.314904    -9.312688    0.589432    -8.207030    11.201674    -20.011797    3.130120    -29.066887    -6.507827    46.953415    -21.487724    5.128968    6.836110    2.733078    -10.857805    -6.422477    -0.157892    18.517630    9.810912    -8.388207    -9.335039    -14.722915    0.303309    -2.769150    -0.337932    -11.031225    -5.264666    -7.686397    2.135864    13.150612    -0.631847    8.541972    -0.853348    -9.393938    -1.789212    -5.554932    1.950706    
-9.382842    85.098801    101.557602    0.222794    -5.882233    -177.493912    -4.100210    -7.433070    -1.140017    1.636231    -0.515989    -0.866171    4.750536    11.020244    1.745634    5.009036    1.067824    2.254194    18.890072    -7.015761    -8.240043    -9.904073    -18.654568    -12.178468    30.189735    -31.446012    -27.940241    12.860401    -24.161779    4.819843    -8.545892    1.022777    -8.425911    12.020133    -20.035109    2.805492    -28.419249    -6.473083    47.249397    -22.890760    4.752776    7.388432    2.959579    -10.645677    -6.131977    -0.234841    18.458124    10.368137    -8.578076    -9.214929    -14.799396    0.295769    -2.888172    -0.329605    -10.903709    -5.447332    -7.648049    2.071917    13.192877    -0.350817    8.563005    -0.860035    -9.002012    -1.873344    -5.552213    2.042419    
-9.166113    85.115547    101.516953    0.207676    -5.865788    -178.269424    -4.252304    -7.451318    -1.511918    1.507706    -0.588193    -1.227192    5.130408    10.791010    2.326493    4.775125    1.677596    2.772803    18.590693    -6.997571    -8.808537    -10.292065    -19.586962    -13.381634    30.636030    -34.369503    -30.828629    13.563879    -26.252090    6.268593    -7.764628    1.490545    -8.684306    12.882844    -19.847706    2.559733    -27.880037    -6.514546    47.477158    -24.266394    4.317832    7.927385    3.195844    -10.443015    -5.837181    -0.298776    18.375662    10.908527    -8.778082    -9.058621    -14.879587    0.288729    -3.015749    -0.321838    -10.762685    -5.644783    -7.604952    2.017474    13.229276    -0.075418    8.600698    -0.835393    -8.612768    -1.950008    -5.559529    2.126023    
-8.943072    85.144829    101.478004    0.204817    -5.868343    -179.027328    -4.392322    -7.482086    -1.910941    1.364406    -0.647009    -1.615892    5.547878    10.502308    2.926709    4.519281    2.334985    3.302745    18.244406    -6.929308    -9.380123    -10.755701    -20.439230    -14.602932    30.921976    -37.044079    -33.888634    14.323895    -28.095665    7.622229    -6.966035    1.983837    -8.973725    13.785630    -19.433937    2.393536    -27.445320    -6.632411    47.634235    -25.588036    3.829791    8.434399    3.440092    -10.251607    -5.539566    -0.351268    18.276724    11.434013    -8.987185    -8.867436    -14.963300    0.282564    -3.151555    -0.315047    -10.610420    -5.855223    -7.538021    1.976608    13.260743    0.187418    8.653376    -0.784088    -8.235625    -2.018992    -5.577956    2.201293    
-8.713444    85.185501    101.440979    0.210919    -5.886944    -179.770676    -4.527383    -7.521514    -2.338595    1.217029    -0.694158    -2.033438    5.994668    10.166523    3.548722    4.244680    3.029862    3.848225    17.847195    -6.809284    -9.957524    -11.291219    -21.224905    -15.836865    31.035900    -39.458347    -37.119907    15.109169    -29.691719    8.851031    -6.161010    2.495585    -9.285255    14.727259    -18.785378    2.300456    -27.104231    -6.822446    47.725204    -26.839804    3.296875    8.894748    3.690661    -10.071489    -5.239152    -0.394027    18.167669    11.948247    -9.205504    -8.642960    -15.051538    0.278174    -3.295138    -0.310238    -10.449425    -6.075873    -7.427557    1.953431    13.287643    0.430341    8.719209    -0.711421    -7.878714    -2.080561    -5.607148    2.268518    
